<svg width="48" height="36" viewBox="0 0 48 36" fill="none" xmlns="http://www.w3.org/2000/svg">
<path fill-rule="evenodd" clip-rule="evenodd" d="M14.3113 11.9208C14.7542 11.3896 15.0532 10.6512 14.9719 9.91525C14.3318 9.94085 13.5578 10.3384 13.1019 10.868C12.6891 11.3376 12.3318 12.0896 12.4305 12.8112C13.1423 12.8656 13.8683 12.4521 14.3113 11.9208ZM16.1504 16.5912C16.1362 14.9992 17.4628 14.2337 17.5242 14.1961C16.7758 13.1193 15.6152 12.9697 15.2018 12.9529C14.2126 12.8561 13.2697 13.5297 12.7698 13.5297C12.2679 13.5297 11.4959 12.9681 10.6739 12.9857C9.59576 13.0009 8.60176 13.6056 8.0468 14.56C6.9296 16.4872 7.76312 19.3328 8.85384 20.892C9.38792 21.6552 10.0228 22.512 10.8595 22.4816C11.6649 22.4504 11.967 21.9657 12.9402 21.9657C13.9112 21.9648 14.1859 22.48 15.034 22.4657C15.8994 22.4473 16.4487 21.6865 16.9794 20.92C17.5895 20.0361 17.8424 19.1776 17.8552 19.1352C17.8378 19.1232 16.1696 18.4936 16.1504 16.5912ZM26.4543 11.9201C26.1317 11.6129 25.7156 11.3729 25.2176 11.2081C24.724 11.0457 24.1312 10.9633 23.4558 10.9633C23.0233 10.9617 22.591 10.9833 22.1609 11.0297C21.8023 11.0697 21.4449 11.1192 21.0892 11.1784L20.9849 11.1969V22.3849H22.0174V17.6712C22.3651 17.7304 22.7632 17.7617 23.2023 17.7617C23.7867 17.7617 24.3342 17.6873 24.8297 17.5424C25.3062 17.4081 25.7503 17.1792 26.1342 16.8688C26.5041 16.5632 26.8015 16.1808 27.0056 15.7488C27.2168 15.3056 27.3242 14.784 27.3242 14.1976C27.3242 13.7129 27.2468 13.276 27.0958 12.9008C26.9498 12.5352 26.7316 12.2017 26.4543 11.9201ZM25.5055 16.1936C24.9756 16.6336 24.2254 16.856 23.2734 16.856C23.0116 16.856 22.7639 16.8448 22.5366 16.824C22.3618 16.808 22.1884 16.7792 22.018 16.7376V11.98C22.1544 11.9552 22.3234 11.932 22.5218 11.9104C22.7734 11.884 23.0762 11.8704 23.4232 11.8704C23.8216 11.8672 24.2186 11.9176 24.603 12.0224C24.9305 12.1112 25.2382 12.2609 25.5102 12.4617C25.7578 12.6521 25.9525 12.8985 26.0875 13.1961C26.2238 13.4977 26.2924 13.8576 26.2924 14.2648C26.2918 15.1104 26.0267 15.7592 25.5055 16.1936ZM33.4961 21.3376C33.4846 21.0208 33.4801 20.7033 33.4801 20.3864V17.276C33.4801 16.9073 33.4422 16.5312 33.3686 16.1576C33.2978 15.7856 33.1522 15.4321 32.941 15.1169C32.7311 14.8049 32.4372 14.5481 32.0697 14.3513C31.7023 14.1561 31.2248 14.0568 30.6494 14.0568C30.2293 14.0568 29.8191 14.1113 29.4318 14.2177C29.0249 14.3337 28.6403 14.5145 28.2928 14.7536L28.2089 14.8112L28.5578 15.6185L28.684 15.5344C28.9593 15.352 29.2605 15.2096 29.5777 15.1136C29.8982 15.0152 30.2321 14.9641 30.5679 14.9633C30.9982 14.9633 31.342 15.0408 31.587 15.1928C31.8361 15.3464 32.0236 15.5368 32.1446 15.76C32.2708 15.9896 32.3533 16.2344 32.3898 16.488C32.4289 16.752 32.4474 16.9888 32.4474 17.1912V17.2808C30.9169 17.2744 29.7217 17.5265 28.9279 18.0321C28.095 18.5632 27.6726 19.3184 27.6726 20.2776C27.6726 20.5536 27.7225 20.8321 27.8211 21.1065C27.9208 21.3849 28.0726 21.6336 28.271 21.8464C28.4709 22.0616 28.7288 22.2368 29.0374 22.368C29.3446 22.5 29.7063 22.5672 30.1102 22.5672C30.6821 22.576 31.245 22.4241 31.7324 22.1281C31.945 21.9985 32.1338 21.8504 32.2952 21.6912C32.3638 21.6232 32.4295 21.552 32.4917 21.4776H32.5314L32.6262 22.3857H33.6214L33.5939 22.2401C33.5393 21.9417 33.5066 21.64 33.4961 21.3376ZM32.4474 19.744C32.4474 19.8528 32.4212 20.0024 32.3713 20.1816C32.3044 20.376 32.2109 20.5593 32.0934 20.7281C31.832 21.1073 31.452 21.3904 31.0123 21.536C30.7453 21.6224 30.4654 21.6648 30.1845 21.6608C29.9991 21.6608 29.8153 21.6296 29.6404 21.5688C29.4706 21.5104 29.3148 21.4185 29.1827 21.2977C29.0441 21.1681 28.9347 21.0112 28.8613 20.8376C28.78 20.652 28.739 20.4216 28.739 20.1544C28.739 19.7169 28.8581 19.3616 29.0918 19.1016C29.3434 18.8256 29.6593 18.6137 30.0124 18.4849C30.4122 18.3361 30.8306 18.2416 31.2561 18.204C31.6521 18.1664 32.0497 18.1489 32.4474 18.1529V19.744ZM40.5038 14.2384L38.5769 19.4216C38.4566 19.7344 38.3445 20.0496 38.2421 20.3568C38.1922 20.5096 38.1447 20.6552 38.098 20.7928H38.0616C38.0135 20.6416 37.9643 20.4905 37.9142 20.3401C37.8146 20.0361 37.707 19.7376 37.5968 19.4536L35.5362 14.2384H34.4346L37.3823 21.736C37.4598 21.9168 37.4713 21.9992 37.4713 22.0329C37.4713 22.0432 37.4676 22.1048 37.3811 22.3328C37.2201 22.7393 37.0101 23.1256 36.7558 23.4824C36.5194 23.8008 36.3031 24.0592 36.1103 24.2496C35.8863 24.4712 35.6552 24.6528 35.4203 24.7904C35.1803 24.9304 34.9614 25.0441 34.7673 25.1297L34.6561 25.1784L35.0151 26.0417L35.1291 26C35.2224 25.9648 35.398 25.8856 35.6642 25.7576C35.933 25.6264 36.2308 25.4184 36.5482 25.1376C36.8297 24.892 37.0795 24.6137 37.2922 24.3081C37.5097 23.9993 37.7274 23.6368 37.9413 23.2336C38.1524 22.8312 38.3637 22.3745 38.5698 21.8737C38.776 21.3697 38.9974 20.8072 39.2261 20.2024L41.6067 14.2384H40.5038ZM43.7014 3.43341L44.1892 3.43389C44.323 3.43461 44.4567 3.43645 44.5911 3.43965C44.835 3.44605 45.1218 3.45925 45.3978 3.50869C45.6533 3.55429 45.8696 3.62485 46.0789 3.72965C46.502 3.94165 46.8458 4.28245 47.0602 4.70085C47.1665 4.90805 47.237 5.12165 47.283 5.37525C47.3322 5.64565 47.3464 5.92965 47.3522 6.17285C47.3559 6.30405 47.3579 6.43685 47.3586 6.57045C47.3598 6.73045 47.3598 6.89205 47.3598 7.05285V28.9473C47.3598 29.1081 47.3598 29.2688 47.3586 29.432C47.3581 29.564 47.3558 29.696 47.3522 29.8272C47.3458 30.0704 47.3322 30.3545 47.283 30.6265C47.2431 30.8609 47.168 31.0872 47.0602 31.2992C46.8446 31.7176 46.5005 32.0577 46.0776 32.2713C45.8634 32.3777 45.6343 32.4521 45.3978 32.4921C45.1315 32.5345 44.8626 32.5568 44.5931 32.56C44.4586 32.5632 44.3242 32.5656 44.1878 32.5656C44.0258 32.5665 43.8627 32.5664 43.7007 32.5664H4.29279C4.13208 32.5664 3.97153 32.5665 3.80897 32.5656C3.67454 32.5656 3.5401 32.5632 3.40888 32.56C3.13862 32.5568 2.86898 32.5337 2.60226 32.4921C2.36488 32.4529 2.13502 32.3776 1.92038 32.2704C1.71005 32.1648 1.51815 32.0265 1.35206 31.8609C1.1852 31.6969 1.04616 31.5064 0.93968 31.2992C0.831368 31.0864 0.756232 30.8593 0.716288 30.6249C0.6728 30.3617 0.649448 30.0944 0.646528 29.8272C0.643304 29.6952 0.641464 29.5632 0.640696 29.4312L0.640232 29.0448V6.95605L0.640696 6.57045C0.641464 6.43765 0.643304 6.30565 0.646528 6.17285C0.652984 5.93125 0.666352 5.64725 0.716288 5.37365C0.755928 5.13925 0.831208 4.91285 0.93968 4.70085C1.15448 4.28245 1.49818 3.94245 1.92116 3.72965C2.13534 3.62245 2.36472 3.54853 2.60149 3.50941C2.86852 3.46629 3.13832 3.44317 3.40888 3.44029C3.54255 3.43709 3.67638 3.43525 3.80958 3.43469L4.29863 3.43341H43.7014ZM43.7014 2.80005H4.29863L3.80636 2.80069C3.66808 2.80125 3.5298 2.80325 3.39152 2.80701C3.08915 2.81101 2.78739 2.83733 2.48886 2.88565C2.19034 2.93637 1.90103 3.03061 1.63046 3.16549C1.08795 3.43997 0.646528 3.87685 0.36936 4.41365C0.232768 4.68085 0.137208 4.96725 0.086352 5.26325C0.037032 5.55845 0.010296 5.85685 0.00645599 6.15605C0.00322399 6.29205 0.00123207 6.42885 0.000616074 6.56565L0 7.05285V28.9473L0.000616074 29.4353C0.00123207 29.5721 0.00322406 29.7088 0.00706406 29.8448C0.0153601 30.1424 0.033184 30.4425 0.087112 30.7369C0.140888 31.0369 0.229696 31.3145 0.36936 31.5865C0.645304 32.1241 1.08734 32.5616 1.63108 32.8344C1.90564 32.9736 2.18681 33.0609 2.48886 33.1145C2.78662 33.1673 3.09007 33.1848 3.39152 33.1928C3.5298 33.1968 3.66746 33.1985 3.80636 33.1985C3.9703 33.2001 4.1347 33.2 4.29863 33.2H43.7014C43.8653 33.2 44.0297 33.2001 44.1937 33.1985C44.3319 33.1985 44.4702 33.196 44.6085 33.1928C44.9093 33.1848 45.2127 33.1673 45.5111 33.1145C45.8095 33.0641 46.0985 32.9696 46.3688 32.8344C46.9126 32.5616 47.3549 32.1249 47.6306 31.5865C47.7708 31.3145 47.8591 31.0369 47.9129 30.7369C47.9666 30.4425 47.984 30.1424 47.9923 29.8448C47.9962 29.708 47.998 29.5713 47.9986 29.4353C48 29.2721 48 29.1105 48 28.9473V7.05285C48 6.88965 48 6.72805 47.9986 6.56485C47.9982 6.42805 47.996 6.29205 47.9923 6.15525C47.9886 5.85605 47.9621 5.55765 47.9129 5.26245C47.8623 4.96725 47.767 4.68085 47.6306 4.41285C47.3539 3.87525 46.9122 3.43845 46.3688 3.16485C46.0985 3.03005 45.8095 2.93565 45.5111 2.88485C45.2126 2.83669 44.9109 2.81037 44.6085 2.80645C44.4696 2.80245 44.3311 2.80125 44.1937 2.80005H43.7014Z" fill="white"/>
</svg>
