<svg width="18" height="18" viewBox="0 0 18 18" fill="none" xmlns="http://www.w3.org/2000/svg">
<g clip-path="url(#clip0_12269_16677)">
<path d="M12.6576 0.0765087C12.7677 0.140339 12.8529 0.239622 12.8993 0.358138C12.9457 0.476654 12.9505 0.607397 12.913 0.729009L10.8868 7.31251H14.6252C14.7351 7.31246 14.8426 7.34459 14.9344 7.40493C15.0262 7.46526 15.0983 7.55116 15.1419 7.65202C15.1854 7.75289 15.1985 7.86429 15.1794 7.97249C15.1604 8.08069 15.1101 8.18095 15.0347 8.26088L6.03472 17.8234C5.94764 17.916 5.83176 17.9764 5.70597 17.9947C5.58018 18.013 5.45189 17.9881 5.34203 17.9242C5.23216 17.8603 5.14719 17.761 5.10096 17.6426C5.05474 17.5242 5.04998 17.3936 5.08747 17.2721L7.1136 10.6875H3.37522C3.26536 10.6876 3.15789 10.6554 3.06608 10.5951C2.97427 10.5348 2.90214 10.4489 2.85859 10.348C2.81503 10.2471 2.80197 10.1357 2.82101 10.0275C2.84005 9.91932 2.89036 9.81907 2.96572 9.73913L11.9657 0.176634C12.0527 0.0841577 12.1684 0.0238234 12.294 0.0054408C12.4196 -0.0129418 12.5478 0.0117085 12.6576 0.0753837V0.0765087Z" fill="#ED6B06"/>
</g>
<defs>
<clipPath id="clip0_12269_16677">
<rect width="18" height="18" fill="white"/>
</clipPath>
</defs>
</svg>
