<svg width="24" height="24" viewBox="0 0 24 24" fill="none" xmlns="http://www.w3.org/2000/svg">
<path fill-rule="evenodd" clip-rule="evenodd" d="M5.96364 9.98194C5.96364 6.65819 8.65807 3.96376 11.9818 3.96376C15.3056 3.96376 18 6.65819 18 9.98194C18 12.1296 16.9691 14.2079 15.6436 15.9762C14.3298 17.7291 12.8037 19.0748 11.9818 19.7408C11.16 19.0748 9.6338 17.7291 8.31999 15.9762C6.99458 14.2079 5.96364 12.1296 5.96364 9.98194ZM11.9818 2.00012C7.57358 2.00012 4 5.5737 4 9.98194C4 12.7394 5.30816 15.2319 6.74872 17.1539C8.19894 19.0888 9.86302 20.5516 10.7496 21.2696C11.4721 21.8548 12.4916 21.8548 13.2141 21.2696C14.1006 20.5516 15.7647 19.0888 17.2149 17.1539C18.6555 15.2319 19.9636 12.7394 19.9636 9.98194C19.9636 5.5737 16.3901 2.00012 11.9818 2.00012ZM9.96364 9.98194C9.96364 8.86733 10.8672 7.96376 11.9818 7.96376C13.0964 7.96376 14 8.86733 14 9.98194C14 11.0966 13.0964 12.0001 11.9818 12.0001C10.8672 12.0001 9.96364 11.0966 9.96364 9.98194ZM11.9818 6.00012C9.78272 6.00012 8 7.78284 8 9.98194C8 12.181 9.78272 13.9638 11.9818 13.9638C14.1809 13.9638 15.9636 12.181 15.9636 9.98194C15.9636 7.78284 14.1809 6.00012 11.9818 6.00012Z" fill="white"/>
</svg>
