<svg width="48" height="36" viewBox="0 0 48 36" fill="none" xmlns="http://www.w3.org/2000/svg">
<path d="M11.9723 13.1906C12.8545 13.1906 13.6454 13.4906 14.2638 14.0722L15.9674 12.3986C14.9331 11.4474 13.5845 10.8562 11.9723 10.8562C9.64016 10.8562 7.62232 12.1786 6.6388 14.1018C6.2332 14.9034 6 15.7954 6 16.7466C6 17.6986 6.2332 18.6002 6.6388 19.3914L6.64248 19.389C7.62736 21.3282 9.64304 22.637 11.9723 22.637C13.5845 22.637 14.9432 22.1162 15.9267 21.2146C17.0522 20.193 17.7012 18.6802 17.7012 16.8874C17.7012 16.4762 17.6606 16.0754 17.5998 15.685H11.9723V17.949H15.1967C15.0547 18.7002 14.639 19.3218 14.0002 19.7418C13.4628 20.1026 12.7734 20.3034 11.9723 20.3034C10.4108 20.3034 9.09264 19.2714 8.62616 17.869H8.6228C8.50336 17.5114 8.44368 17.1434 8.44368 16.7466C8.44368 16.3562 8.51464 15.9754 8.62616 15.6146V15.5858C9.1112 14.2082 10.4318 13.1906 11.9723 13.1906Z" fill="white"/>
<path fill-rule="evenodd" clip-rule="evenodd" d="M23.0969 21.9285V17.7805H25.2975C26.2095 17.7805 26.9703 17.4901 27.5887 16.9093C28.2375 16.3285 28.5519 15.6069 28.5519 14.7349C28.5519 13.8837 28.2279 13.1621 27.5887 12.5717C26.9599 11.9805 26.1999 11.6797 25.2975 11.6797H21.7585V21.9285H23.0969ZM23.0969 16.5181V12.9421H25.3279C25.8551 12.9421 26.3015 13.1221 26.6455 13.4829C27.0007 13.8333 27.1831 14.2445 27.1831 14.7253C27.1831 15.2165 27.0007 15.6365 26.6455 15.9877C26.3015 16.3381 25.8551 16.5181 25.3279 16.5181H23.0969Z" fill="white"/>
<path fill-rule="evenodd" clip-rule="evenodd" d="M31.6245 14.686C32.6077 14.686 33.3885 14.946 33.9565 15.4676C34.5245 15.9884 34.8085 16.6996 34.8085 17.6108V21.9388H33.5309V20.9668H33.4701C32.9221 21.7684 32.1821 22.1692 31.2693 22.1692C30.4885 22.1692 29.8293 21.9388 29.3021 21.478C28.7749 21.0172 28.5117 20.446 28.5117 19.7548C28.5117 19.034 28.7853 18.4524 29.3429 18.022C29.9005 17.5908 30.6405 17.3804 31.5733 17.3804C32.3645 17.3804 33.0237 17.5212 33.5309 17.8116V17.5108C33.5309 17.05 33.3477 16.6596 32.9829 16.3492C32.6181 16.0284 32.1821 15.8676 31.6949 15.8676C30.9549 15.8676 30.3565 16.1788 29.9205 16.7996L28.7445 16.0684C29.4037 15.1468 30.3565 14.686 31.6245 14.686ZM29.9005 19.7852C29.9005 20.126 30.0525 20.4164 30.3469 20.6468C30.6405 20.8772 30.9853 20.9868 31.3813 20.9868C31.9389 20.9868 32.4453 20.7764 32.8813 20.3764C33.3173 19.9652 33.5405 19.4844 33.5405 18.9332C33.1253 18.6132 32.5469 18.4428 31.7965 18.4428C31.2589 18.4428 30.8029 18.5732 30.4381 18.8332C30.0829 19.0836 29.9005 19.4044 29.9005 19.7852Z" fill="white"/>
<path d="M42.1478 14.9126L37.6862 25.0206H36.3174L37.9702 21.4846L35.0398 14.9126H36.4902L38.6094 19.9614H38.6398L40.6982 14.9126H42.1478Z" fill="white"/>
<path fill-rule="evenodd" clip-rule="evenodd" d="M0 5.84005C0 4.16085 1.3776 2.80005 3.07696 2.80005H44.9232C46.6224 2.80005 48 4.16085 48 5.84005V30.16C48 31.8392 46.6224 33.2 44.9232 33.2H3.07696C1.3776 33.2 0 31.8392 0 30.16V5.84005ZM3.07696 3.40805H44.9232C46.2824 3.40805 47.3848 4.49685 47.3848 5.84005V30.16C47.3848 31.5032 46.2824 32.5921 44.9232 32.5921H3.07696C1.71744 32.5921 0.615363 31.5032 0.615363 30.16V5.84005C0.615363 4.49685 1.71744 3.40805 3.07696 3.40805Z" fill="white"/>
</svg>
