<svg width="48" height="36" viewBox="0 0 48 36" fill="none" xmlns="http://www.w3.org/2000/svg">
<path d="M29.5607 24.4936H18.8627V4.57593H29.5607V24.4936Z" fill="#6C6BBD"/>
<path d="M19.5433 14.5351C19.5433 10.5003 21.3675 6.89782 24.212 4.57623C22.125 2.87906 19.5124 1.87036 16.6523 1.87036C9.89638 1.87036 4.42358 7.53826 4.42358 14.5351C4.42358 21.5319 9.89638 27.1998 16.6523 27.1998C19.5124 27.1998 22.125 26.1911 24.212 24.4939C21.3675 22.1723 19.5433 18.5859 19.5433 14.5351Z" fill="#D32011"/>
<path d="M44 14.5346C44 21.5314 38.5279 27.1993 31.7719 27.1993C28.9116 27.1993 26.2991 26.1906 24.2117 24.4935C27.0566 22.1718 28.8809 18.5693 28.8809 14.5346C28.8809 10.4998 27.0566 6.89734 24.2117 4.57574C26.2991 2.87857 28.9116 1.86987 31.7719 1.86987C38.5279 1.86987 44 7.53777 44 14.5346Z" fill="#0099DF"/>
<path d="M33.179 30.1292C33.3179 30.1292 33.519 30.1613 33.6893 30.2253L33.4729 30.9138C33.3179 30.8497 33.179 30.8338 33.024 30.8338C32.5604 30.8338 32.3286 31.1379 32.3286 31.6983V33.5716H31.6333V30.2093H32.3286V30.6256C32.5143 30.3214 32.7768 30.1292 33.179 30.1292ZM30.5665 30.8818H29.4069V32.4028C29.4069 32.739 29.5151 32.9632 29.8704 32.9632C30.0562 32.9632 30.2879 32.8991 30.489 32.7711L30.6901 33.3955C30.4737 33.5556 30.1176 33.6517 29.809 33.6517C28.974 33.6517 28.6801 33.1873 28.6801 32.4028V30.8658H28.0155V30.2093H28.6801V29.1846H29.3915V30.2093H30.5504V30.8818H30.5665ZM21.5223 31.6023C21.5995 31.122 21.8778 30.7857 22.388 30.7857C22.8363 30.7857 23.13 31.0739 23.2074 31.6023H21.5223ZM23.9494 31.8905C23.9494 30.8497 23.3156 30.1292 22.4035 30.1292C21.445 30.1292 20.7802 30.8497 20.7802 31.8905C20.7802 32.9632 21.4758 33.6517 22.4498 33.6517C22.9445 33.6517 23.3929 33.5236 23.7794 33.1873L23.4392 32.643C23.1609 32.8671 22.8209 32.9952 22.4962 32.9952C22.0479 32.9952 21.6305 32.7711 21.5223 32.1787H23.9339C23.9494 32.0826 23.9494 31.9865 23.9494 31.8905ZM27.0569 31.0739C26.8558 30.9458 26.4537 30.7857 26.0523 30.7857C25.6655 30.7857 25.4337 30.9298 25.4337 31.186C25.4337 31.4102 25.6809 31.4742 25.9901 31.5222L26.3301 31.5703C27.0415 31.6823 27.459 31.9865 27.459 32.579C27.459 33.2194 26.918 33.6837 25.9748 33.6837C25.4491 33.6837 24.9541 33.5396 24.568 33.2514L24.908 32.675C25.1398 32.8671 25.4951 33.0273 25.9901 33.0273C26.4691 33.0273 26.7323 32.8832 26.7323 32.6109C26.7323 32.4188 26.5466 32.3228 26.1605 32.2587L25.8198 32.2107C25.0937 32.0986 24.6916 31.7624 24.6916 31.218C24.6916 30.5456 25.2173 30.1453 26.0362 30.1453C26.5466 30.1453 27.0262 30.2573 27.3662 30.4975L27.0569 31.0739ZM35.7607 30.8177C35.6218 30.8177 35.4822 30.8497 35.3586 30.8977C35.235 30.9458 35.1268 31.0259 35.034 31.122C34.9411 31.218 34.8643 31.3301 34.8175 31.4582C34.7715 31.5862 34.74 31.7303 34.74 31.8905C34.74 32.0506 34.7715 32.1947 34.8175 32.3228C34.8643 32.4508 34.9411 32.5629 35.034 32.659C35.1268 32.755 35.235 32.8351 35.3586 32.8832C35.4822 32.9312 35.6218 32.9632 35.7607 32.9632C35.8997 32.9632 36.0393 32.9312 36.1629 32.8832C36.2864 32.8351 36.3947 32.755 36.4875 32.659C36.5804 32.5629 36.6572 32.4508 36.7039 32.3228C36.75 32.1947 36.7807 32.0506 36.7807 31.8905C36.7807 31.7303 36.75 31.5862 36.7039 31.4582C36.6572 31.3301 36.5804 31.218 36.4875 31.122C36.3947 31.0259 36.2864 30.9458 36.1629 30.8977C36.0547 30.8497 35.915 30.8177 35.7607 30.8177ZM35.7607 30.1292C36.0079 30.1292 36.2397 30.1773 36.4561 30.2733C36.6725 30.3694 36.8582 30.4815 37.0132 30.6416C37.1675 30.8017 37.2911 30.9938 37.3839 31.202C37.4768 31.4261 37.5229 31.6503 37.5229 31.9065C37.5229 32.1626 37.4768 32.4028 37.3839 32.6109C37.2911 32.8191 37.1675 33.0112 37.0132 33.1714C36.8582 33.3314 36.6725 33.4596 36.4561 33.5396C36.2397 33.6357 36.0079 33.6677 35.7607 33.6677C35.5136 33.6677 35.2811 33.6196 35.0647 33.5396C34.8483 33.4435 34.6633 33.3314 34.5083 33.1714C34.354 33.0112 34.2304 32.8191 34.1375 32.6109C34.0447 32.3868 33.9986 32.1626 33.9986 31.9065C33.9986 31.6503 34.0447 31.4101 34.1375 31.202C34.2304 30.9938 34.354 30.8017 34.5083 30.6416C34.6633 30.4815 34.8483 30.3534 35.0647 30.2733C35.2811 30.1613 35.5136 30.1292 35.7607 30.1292ZM17.3944 31.8905C17.3944 31.298 17.7655 30.8177 18.3839 30.8177C18.9713 30.8177 19.3578 31.282 19.3578 31.8905C19.3578 32.4989 18.9559 32.9632 18.3839 32.9632C17.7809 32.9632 17.3944 32.4829 17.3944 31.8905ZM20.0381 31.8905V30.2093H19.3269V30.6256C19.0951 30.3214 18.7704 30.1292 18.3066 30.1292C17.3944 30.1292 16.6833 30.8658 16.6833 31.8905C16.6833 32.9152 17.3944 33.6517 18.3066 33.6517C18.7704 33.6517 19.1105 33.4596 19.3269 33.1553V33.5716H20.0381V31.8905ZM16.0494 33.5716V31.4582C16.0494 30.6576 15.5547 30.1292 14.7663 30.1292C14.3489 30.1292 13.916 30.2573 13.6223 30.7217C13.4058 30.3534 13.0503 30.1292 12.5556 30.1292C12.2154 30.1292 11.8754 30.2413 11.5971 30.6256V30.2093H10.8859V33.5716H11.5971V31.7144C11.5971 31.1379 11.9062 30.8177 12.3855 30.8177C12.8493 30.8177 13.0966 31.1379 13.0966 31.6983V33.5716H13.8078V31.7144C13.8078 31.1379 14.1325 30.8177 14.5963 30.8177C15.0755 30.8177 15.3074 31.1379 15.3074 31.6983V33.5716H16.0494Z" fill="white"/>
</svg>
