<svg width="24" height="24" viewBox="0 0 24 24" fill="none" xmlns="http://www.w3.org/2000/svg">
<path d="M20.7263 19.3951L16.289 14.9395C17.4299 13.6301 18.055 11.9826 18.055 10.2675C18.055 6.26026 14.6781 3 10.5275 3C6.37691 3 3 6.26026 3 10.2675C3 14.2747 6.37691 17.535 10.5275 17.535C12.0857 17.535 13.5706 17.0812 14.8401 16.2199L19.3111 20.7093C19.498 20.8967 19.7494 21 20.0187 21C20.2737 21 20.5156 20.9062 20.6992 20.7355C21.0893 20.3731 21.1017 19.7721 20.7263 19.3951ZM10.5275 4.89587C13.5955 4.89587 16.0913 7.30552 16.0913 10.2675C16.0913 13.2295 13.5955 15.6391 10.5275 15.6391C7.45956 15.6391 4.9637 13.2295 4.9637 10.2675C4.9637 7.30552 7.45956 4.89587 10.5275 4.89587Z" fill="#7B7B7B"/>
</svg>
