<svg width="48" height="36" viewBox="0 0 48 36" fill="none" xmlns="http://www.w3.org/2000/svg">
<path d="M20.8277 25.4577H17.2334L19.4816 11.061H23.0757L20.8277 25.4577Z" fill="white"/>
<path d="M33.8573 11.4129C33.1483 11.1217 32.0239 10.8 30.6335 10.8C27.0839 10.8 24.5844 12.7604 24.569 15.5629C24.5395 17.6307 26.3586 18.7792 27.7192 19.4687C29.1098 20.1732 29.5825 20.633 29.5825 21.261C29.5684 22.2255 28.4588 22.6701 27.4239 22.6701C25.9889 22.6701 25.22 22.4409 24.0515 21.9042L23.5782 21.6742L23.0752 24.906C23.9182 25.3038 25.4714 25.6567 27.0839 25.6722C30.8553 25.6722 33.3107 23.7422 33.3398 20.7556C33.3542 19.1167 32.3936 17.8609 30.3227 16.8348C29.0655 16.1761 28.2957 15.7319 28.2957 15.0579C28.3104 14.4452 28.9468 13.8176 30.366 13.8176C31.5344 13.7869 32.393 14.0778 33.0433 14.3689L33.3684 14.5217L33.8573 11.4129Z" fill="white"/>
<path d="M38.6348 20.3574C38.9307 19.5304 40.0698 16.3294 40.0698 16.3294C40.0548 16.3601 40.3652 15.4871 40.5427 14.9511L40.7939 16.1916C40.7939 16.1916 41.4746 19.6376 41.6224 20.3574C41.0606 20.3574 39.3447 20.3574 38.6348 20.3574ZM43.0716 11.061H40.2913C39.4339 11.061 38.7826 11.3212 38.4127 12.2555L33.0737 25.4574H36.8452C36.8452 25.4574 37.4661 23.6806 37.5995 23.2979C38.0133 23.2979 41.6821 23.2979 42.2143 23.2979C42.3176 23.8033 42.6432 25.4574 42.6432 25.4574H45.9713L43.0716 11.061Z" fill="white"/>
<path d="M14.2311 11.061L10.711 20.8781L10.3264 18.8872C9.6756 16.5898 7.63458 14.0937 5.35693 12.8525L8.5812 25.4424H12.3821L18.0318 11.061H14.2311Z" fill="white"/>
<path d="M7.44198 11.061H1.65902L1.59985 11.352C6.11092 12.5466 9.09854 15.4264 10.326 18.8877L9.06887 12.2712C8.86184 11.3517 8.22585 11.0914 7.44198 11.061Z" fill="white"/>
</svg>
